<?xml version="1.0" encoding="UTF-8"?>
<svg xmlns="http://www.w3.org/2000/svg" xmlns:xlink="http://www.w3.org/1999/xlink"   viewBox="0 0 192 192" version="1.1">
<g>
<path style=" stroke:none;fill-rule:nonzero;fill-opacity:1;" fill="#007f00" d="M 90.226562 9.75 C 73.953125 11.699219 59.550781 21.523438 51.902344 35.925781 C 48.003906 43.277344 45.902344 51.300781 45.902344 59.101562 C 45.902344 71.402344 55.425781 92.027344 74.101562 120.300781 C 81.75 131.925781 89.101562 142.050781 90.601562 143.101562 C 93.75 145.351562 98.175781 145.351562 101.402344 143.101562 C 102.828125 142.050781 109.503906 132.902344 117.527344 120.976562 C 131.476562 100.050781 140.628906 82.578125 144.527344 69.675781 C 147.527344 59.324219 146.175781 47.550781 140.550781 36.601562 C 134.925781 25.726562 125.25 17.027344 114 12.828125 C 106.425781 10.054688 97.574219 8.851562 90.226562 9.753906 Z M 102.675781 41.101562 C 105.902344 42.300781 108.824219 44.550781 111.074219 47.476562 C 113.699219 50.925781 114.597656 53.851562 114.597656 58.800781 C 114.597656 62.402344 114.371094 63.300781 113.023438 66.152344 C 111.074219 70.277344 107.921875 73.425781 103.796875 75.378906 C 100.871094 76.804688 100.121094 76.953125 95.996094 76.953125 C 91.871094 76.953125 91.121094 76.804688 88.195312 75.378906 C 73.945312 68.628906 73.71875 48.902344 87.746094 41.777344 C 92.246094 39.527344 97.570312 39.226562 102.671875 41.101562 Z M 102.675781 41.101562 "/>
<path style=" stroke:none;fill-rule:nonzero;fill-opacity:1;" fill="#007f00" d="M 43.800781 109.425781 C 30.527344 113.851562 22.277344 118.5 15.527344 125.25 C 10.878906 129.976562 8.777344 133.574219 7.800781 138.898438 C 6.226562 147.449219 10.949219 156.523438 20.925781 163.875 C 25.875 167.476562 35.027344 171.976562 42.976562 174.601562 C 79.425781 186.675781 130.425781 184.652344 160.875 169.800781 C 168.300781 166.199219 171.824219 163.800781 176.550781 159 C 181.199219 154.273438 183.375 150.523438 184.277344 145.351562 C 186.378906 134.101562 177.828125 122.703125 161.328125 114.601562 C 156.527344 112.277344 142.054688 106.953125 140.402344 106.953125 C 140.175781 106.953125 139.128906 108.453125 138.003906 110.328125 L 136.054688 113.703125 L 138.078125 114.152344 C 152.179688 117.675781 165.753906 124.425781 171.753906 130.953125 C 175.578125 135.078125 176.703125 137.628906 176.703125 142.054688 C 176.703125 146.554688 175.578125 149.105469 171.753906 153.15625 C 161.628906 164.105469 138.230469 172.054688 109.730469 174.382812 C 100.878906 175.058594 82.804688 174.757812 74.253906 173.632812 C 45.003906 170.257812 22.429688 160.132812 16.503906 148.132812 C 14.855469 144.832031 14.855469 139.582031 16.503906 136.28125 C 19.128906 130.957031 26.328125 125.03125 35.554688 120.757812 C 39.828125 118.808594 49.203125 115.433594 54.003906 114.234375 L 55.953125 113.785156 L 54.003906 110.410156 C 52.953125 108.535156 51.753906 107.035156 51.527344 107.035156 C 51.226562 107.109375 47.703125 108.160156 43.800781 109.433594 Z M 43.800781 109.425781 "/>
</g>
</svg>
